<?xml version="1.0" encoding="UTF-8" standalone="no"?>
<svg
   xmlns:dc="http://purl.org/dc/elements/1.1/"
   xmlns:cc="http://creativecommons.org/ns#"
   xmlns:rdf="http://www.w3.org/1999/02/22-rdf-syntax-ns#"
   xmlns:svg="http://www.w3.org/2000/svg"
   xmlns="http://www.w3.org/2000/svg"
   xml:space="preserve"
   width="512px"
   viewBox="0 0 512 512"
   version="1.1"
   id="Layer_1"
   height="512px"
   enable-background="new 0 0 512 512"><metadata
     id="metadata20"><rdf:RDF><cc:Work
         rdf:about=""><dc:format>image/svg+xml</dc:format><dc:type
           rdf:resource="http://purl.org/dc/dcmitype/StillImage" /><dc:title></dc:title></cc:Work></rdf:RDF></metadata><defs
     id="defs18" /><path
     d="M 451.857,248.802 C 447.505,133.125 352.37,40.678 235.628,40.678 c -119.516,0 -216.354,96.886 -216.354,216.402 0,119.516 96.451,216.402 216.451,216.402 V 444.756 C 131.725,444.756 48,360.565 48,257.08 48,153.595 132.167,69.404 235.652,69.404 c 100.97,0 183.546,80.152 187.501,180.17 l -43.03,-15.401 56.301,97.522 56.302,-97.522 z"
     id="path2"
     style="fill:#cccccc;fill-opacity:1" /><path
     d="m 342.203,473.08 h -87.478 v -17.942 l 31.452,-31.654 c 9.27,-9.499 15.398,-16.083 18.244,-19.752 2.844,-3.669 4.927,-7.068 6.178,-10.196 1.25,-3.128 1.894,-6.371 1.894,-9.727 0,-5.006 -1.37,-8.731 -4.129,-11.177 -2.76,-2.446 -6.438,-3.669 -11.045,-3.669 -4.835,0 -9.526,1.109 -14.076,3.328 -4.552,2.218 -9.299,5.375 -14.248,9.471 l -14.333,-16.979 c 6.143,-5.233 11.233,-8.93 15.273,-11.092 4.039,-2.161 8.447,-3.825 13.225,-4.991 4.778,-1.166 10.124,-1.749 16.04,-1.749 7.793,0 14.675,1.422 20.648,4.266 5.973,2.844 10.608,6.826 13.907,11.945 3.299,5.119 4.949,10.978 4.949,17.576 0,5.745 -1.01,11.135 -3.029,16.169 -2.019,5.034 -5.148,10.196 -9.385,15.486 -4.238,5.29 -11.768,12.827 -22.462,22.61 l -16.103,15.102 v 0.975 h 54 v 22 z"
     id="path4"
     style="fill:#2978a0;fill-opacity:1" /><path
     d="m 444.726,448.08 h -15 v 25 h -26 v -25 h -53 v -18.794 l 54.701,-80.206 h 24.299 v 78 h 15 z m -41,-20.927 v -21.16 c 0,-3.527 0.268,-8.579 0.552,-15.291 0.284,-6.712 0.638,-10.622 0.809,-11.622 h -0.683 c -2.105,5 -4.636,9.112 -7.594,13.548 l -22.866,34.452 h 29.782 z"
     id="path6"
     style="fill:#2978a0;fill-opacity:1" /><path
     d="m 339.913,167.148 c -7.086,-7.086 -78.883,52.704 -111.018,80.721 -21.017,-15.966 -54.308,-38.225 -60.707,-31.826 -8.787,8.787 36.468,68.288 45.255,77.075 5.538,5.538 13.242,7.577 20.383,6.135 4.409,-0.766 8.636,-2.835 12.041,-6.24 8.788,-8.787 102.833,-117.079 94.046,-125.865 z"
     id="path8"
     style="fill:#2978a0;fill-opacity:1" /><path
     d="m 243.726,135.08 c 0,5.523 -4.477,10 -10,10 h -3 c -5.523,0 -10,-4.477 -10,-10 v -43 c 0,-5.523 4.477,-10 10,-10 h 3 c 5.523,0 10,4.477 10,10 z"
     id="path10"
     style="fill:#cccccc;fill-opacity:1" /><path
     d="m 122.726,258.08 c 0,5.523 -4.477,10 -10,10 h -43 c -5.523,0 -10,-4.477 -10,-10 v -3 c 0,-5.523 4.477,-10 10,-10 h 43 c 5.523,0 10,4.477 10,10 z"
     id="path12"
     style="fill:#cccccc;fill-opacity:1" /></svg>