<?xml version="1.0" encoding="UTF-8" standalone="no"?>
<svg
   xmlns:dc="http://purl.org/dc/elements/1.1/"
   xmlns:cc="http://creativecommons.org/ns#"
   xmlns:rdf="http://www.w3.org/1999/02/22-rdf-syntax-ns#"
   xmlns:svg="http://www.w3.org/2000/svg"
   xmlns="http://www.w3.org/2000/svg"
   xml:space="preserve"
   width="512px"
   viewBox="0 0 512 512"
   version="1.1"
   id="Layer_1"
   height="512px"
   enable-background="new 0 0 512 512"><metadata
     id="metadata25"><rdf:RDF><cc:Work
         rdf:about=""><dc:format>image/svg+xml</dc:format><dc:type
           rdf:resource="http://purl.org/dc/dcmitype/StillImage" /><dc:title></dc:title></cc:Work></rdf:RDF></metadata><defs
     id="defs39" /><path
     d="m 53.4934,37.009 c -23.4381,0 -42.6217,19.214 -42.6217,42.653 v 383.686 c 0,23.438 19.1837,42.652 42.6217,42.652 h 405.0132 c 23.4381,0 42.6217,-19.214 42.6217,-42.652 V 79.662 c 0,-23.439 -19.1837,-42.653 -42.6217,-42.653 h -58.3711 c 0.2363,8.15 0.071,16.328 -0.1226,24.513 h 58.4937 c 9.8393,0 18.1395,8.3 18.1395,18.14 v 94.344 H 35.3539 V 79.662 c 0,-9.84 8.3003,-18.14 18.1395,-18.14 h 58.6776 c 0.1371,-8.177 0.2081,-16.358 0.061,-24.513 H 53.4931 Z m 119.7758,0 c 0.2497,8.148 0.074,16.327 -0.1226,24.513 h 165.9519 c 0.1371,-8.177 0.2082,-16.358 0.061,-24.513 H 173.2689 Z M 35.3539,198.488 h 441.2922 v 264.86 c 0,9.839 -8.302,18.14 -18.1395,18.14 H 53.4934 c -9.8392,0 -18.1395,-8.301 -18.1395,-18.14 z"
     id="path13-88-7-80"
     style="fill:#cccccc;fill-opacity:1" /><path
     d="M 107.1458,226.968 H 89.3034 c -11.3659,0 -20.6649,9.298 -20.6649,20.664 v 17.843 c 0,11.366 9.299,20.665 20.6649,20.665 h 17.8424 c 11.3641,0 20.6631,-9.299 20.6631,-20.665 v -17.841 c 0,-11.367 -9.299,-20.666 -20.6631,-20.666 z"
     id="path15-24-1-88"
     style="fill:#cccccc;fill-opacity:1" /><path
     d="m 186.0333,226.968 h -17.8426 c -11.3656,0 -20.6646,9.298 -20.6646,20.664 v 17.843 c 0,11.366 9.299,20.665 20.6646,20.665 h 17.8426 c 11.3641,0 20.663,-9.299 20.663,-20.665 v -17.841 c 0,-11.367 -9.2989,-20.666 -20.663,-20.666 z"
     id="path17-5-8-06"
     style="fill:#cccccc;fill-opacity:1" /><path
     d="m 264.9182,226.968 h -17.8407 c -11.364,0 -20.663,9.298 -20.663,20.664 v 17.843 c 0,11.366 9.299,20.665 20.663,20.665 h 17.8407 c 11.3658,0 20.6648,-9.299 20.6648,-20.665 v -17.841 c 0,-11.367 -9.299,-20.666 -20.6648,-20.666 z"
     id="path19-5-9-8"
     style="fill:#cccccc;fill-opacity:1" /><path
     d="m 343.8057,226.968 h -17.8391 c -11.3658,0 -20.6647,9.298 -20.6647,20.664 v 17.843 c 0,11.366 9.2989,20.665 20.6647,20.665 h 17.8391 c 11.3658,0 20.6647,-9.299 20.6647,-20.665 v -17.841 c 0,-11.367 -9.2989,-20.666 -20.6647,-20.666 z"
     id="path21-1-2-1"
     style="fill:#cccccc;fill-opacity:1" /><path
     d="M 107.1458,312.558 H 89.3034 c -11.3659,0 -20.6649,9.297 -20.6649,20.662 v 17.846 c 0,11.363 9.299,20.664 20.6649,20.664 h 17.8424 c 11.3641,0 20.6631,-9.301 20.6631,-20.664 V 333.22 c 0,-11.363 -9.299,-20.662 -20.6631,-20.662 z"
     id="path23-7-7-98"
     style="fill:#cccccc;fill-opacity:1" /><path
     d="m 186.0333,312.558 h -17.8426 c -11.3656,0 -20.6646,9.297 -20.6646,20.662 v 17.846 c 0,11.363 9.299,20.664 20.6646,20.664 h 17.8426 c 11.3641,0 20.663,-9.301 20.663,-20.664 V 333.22 c 0,-11.363 -9.2989,-20.662 -20.663,-20.662 z"
     id="path25-11-9-97"
     style="fill:#cccccc;fill-opacity:1" /><path
     d="m 264.9182,312.558 h -17.8407 c -11.364,0 -20.663,9.297 -20.663,20.662 v 17.846 c 0,11.363 9.299,20.664 20.663,20.664 h 17.8407 c 11.3658,0 20.6648,-9.301 20.6648,-20.664 V 333.22 c 0,-11.363 -9.299,-20.662 -20.6648,-20.662 z"
     id="path27-5-5-2"
     style="fill:#cccccc;fill-opacity:1" /><path
     d="m 343.8057,312.558 h -17.8391 c -11.3658,0 -20.6647,9.297 -20.6647,20.662 v 17.846 c 0,11.363 9.2989,20.664 20.6647,20.664 h 17.8391 c 11.3658,0 20.6647,-9.301 20.6647,-20.664 V 333.22 c 0,-11.363 -9.2989,-20.662 -20.6647,-20.662 z"
     id="path29-2-4-2"
     style="fill:#cccccc;fill-opacity:1" /><path
     d="M 107.1458,398.147 H 89.3034 c -11.3659,0 -20.6649,9.299 -20.6649,20.663 v 17.848 c 0,11.36 9.299,20.661 20.6649,20.661 h 17.8424 c 11.3641,0 20.6631,-9.301 20.6631,-20.661 V 418.81 c 0,-11.364 -9.299,-20.663 -20.6631,-20.663 z"
     id="path31-7-3-8"
     style="fill:#cccccc;fill-opacity:1" /><path
     d="m 186.0333,398.147 h -17.8426 c -11.3656,0 -20.6646,9.299 -20.6646,20.663 v 17.848 c 0,11.36 9.299,20.661 20.6646,20.661 h 17.8426 c 11.3641,0 20.663,-9.301 20.663,-20.661 V 418.81 c 0,-11.364 -9.2989,-20.663 -20.663,-20.663 z"
     id="path33-1-2"
     style="fill:#cccccc;fill-opacity:1" /><path
     d="m 264.9182,398.147 h -17.8407 c -11.364,0 -20.663,9.299 -20.663,20.663 v 17.848 c 0,11.36 9.299,20.661 20.663,20.661 h 17.8407 c 11.3658,0 20.6648,-9.301 20.6648,-20.661 V 418.81 c 0,-11.364 -9.299,-20.663 -20.6648,-20.663 z"
     id="path35-2-8"
     style="fill:#cccccc;fill-opacity:1" /><path
     d="m 343.8057,398.147 h -17.8391 c -11.3658,0 -20.6647,9.299 -20.6647,20.663 v 17.848 c 0,11.36 9.2989,20.661 20.6647,20.661 h 17.8391 c 11.3658,0 20.6647,-9.301 20.6647,-20.661 V 418.81 c 0,-11.364 -9.2989,-20.663 -20.6647,-20.663 z"
     id="path37-3-9"
     style="fill:#cccccc;fill-opacity:1" /><path
     d="m 422.6933,226.968 h -17.8391 c -11.3658,0 -20.6648,9.298 -20.6648,20.664 v 17.843 c 0,11.366 9.299,20.665 20.6648,20.665 h 17.8391 c 11.3658,0 20.6647,-9.299 20.6647,-20.665 v -17.841 c 0,-11.367 -9.2989,-20.666 -20.6647,-20.666 z"
     id="path6310-3-07"
     style="fill:#00a1f1;fill-opacity:1" /><path
     d="m 422.6933,312.558 h -17.8391 c -11.3658,0 -20.6648,9.297 -20.6648,20.662 v 17.846 c 0,11.363 9.299,20.664 20.6648,20.664 h 17.8391 c 11.3658,0 20.6647,-9.301 20.6647,-20.664 V 333.22 c 0,-11.363 -9.2989,-20.662 -20.6647,-20.662 z"
     id="path6312-4-8"
     style="fill:#00a1f1;fill-opacity:1" /><path
     d="m 422.6933,398.147 h -17.8391 c -11.3658,0 -20.6648,9.299 -20.6648,20.663 v 17.848 c 0,11.36 9.299,20.661 20.6648,20.661 h 17.8391 c 11.3658,0 20.6647,-9.301 20.6647,-20.661 V 418.81 c 0,-11.364 -9.2989,-20.663 -20.6647,-20.663 z"
     id="path6314-1-1"
     style="fill:#00a1f1;fill-opacity:1" /><path
     d="m 141.4638,6 c -8.6913,0 -15.6882,6.997 -15.6882,15.689 v 102.77 c 0,8.691 6.9969,15.688 15.6882,15.688 h 2.1755 c 8.6913,0 15.6882,-6.997 15.6882,-15.688 V 21.689 C 159.3275,12.997 152.3306,6 143.6393,6 Z m 226.9276,0 c -8.6913,0 -15.6883,6.997 -15.6883,15.689 v 102.77 c 0,8.691 6.997,15.688 15.6883,15.688 h 2.1448 c 8.6913,0 15.6882,-6.997 15.6882,-15.688 V 21.689 C 386.2244,12.997 379.2275,6 370.5362,6 Z"
     id="rect6478-5"
     style="fill:#00a1f1;fill-opacity:1;fill-rule:nonzero;stroke:none" /><path
     d="m 69.4531,290.573 c -13.1576,0 -24,10.843 -24,24 v 54.563 c 0,13.157 10.8424,24 24,24 h 373.0938 c 13.1576,0 24,-10.843 24,-24 v -54.563 c 0,-13.157 -10.8424,-24 -24,-24 z m 0,16 h 373.0938 c 4.5703,0 8,3.43 8,8 v 54.563 c 0,4.57 -3.4297,8 -8,8 H 69.4531 c -4.5704,0 -8,-3.43 -8,-8 v -54.563 c 0,-4.57 3.4296,-8 8,-8 z"
     id="rect8548"
     style="color:#000000;font-style:normal;font-variant:normal;font-weight:normal;font-stretch:normal;font-size:medium;line-height:normal;font-family:Sans;-inkscape-font-specification:Sans;text-indent:0;text-align:start;text-decoration:none;text-decoration-line:none;letter-spacing:normal;word-spacing:normal;text-transform:none;writing-mode:lr-tb;direction:ltr;baseline-shift:baseline;text-anchor:start;display:inline;overflow:visible;visibility:visible;fill:#00a1f1;fill-opacity:1;fill-rule:nonzero;stroke:none;stroke-width:16;marker:none;enable-background:accumulate" /></svg>