<?xml version="1.0" encoding="UTF-8" standalone="no"?>
<svg
   xmlns:dc="http://purl.org/dc/elements/1.1/"
   xmlns:cc="http://creativecommons.org/ns#"
   xmlns:rdf="http://www.w3.org/1999/02/22-rdf-syntax-ns#"
   xmlns:svg="http://www.w3.org/2000/svg"
   xmlns="http://www.w3.org/2000/svg"
   xml:space="preserve"
   viewBox="0 0 422.9801 431.54654"
   height="452.74973"
   width="443.76239"
   y="0px"
   x="0px"
   id="Capa_1"
   version="1.1"><metadata
     id="metadata48"><rdf:RDF><cc:Work
         rdf:about=""><dc:format>image/svg+xml</dc:format><dc:type
           rdf:resource="http://purl.org/dc/dcmitype/StillImage" /><dc:title></dc:title></cc:Work></rdf:RDF></metadata><defs
     id="defs46" /><path
     d="m 174.45285,22.675821 -53.701,-21.83300012 c -6.023,-2.44699998 -9.328,0.61900002 -7.355,6.80700002 l 6.921,21.7170001 c -50.386003,24.075 -88.565003,66.184 -107.589003,118.758999 -19.2160002,53.09 -16.6030002,110.488 7.35,161.617 23.955,51.124 66.388,89.865 119.479003,109.081 37.707,13.64 77.577,16.278 115.838,8.08 15.615,-3.346 30.958,-8.495 45.774,-15.438 51.127,-23.958 89.868,-66.384 109.081,-119.474 19.217,-53.093 16.604,-110.491 -7.354,-161.617 -3.396,-7.252 -6.814,-14.491 -11.325,-20.985 -5.987,-8.619 -11.305,-17.691999 -24.34,-8.786 -13.19,9.014 -3.275,26.874 4.883,44.197 20.184,42.862 22.295,91.064 6.171,135.622 -16.122,44.549 -48.633,80.154 -91.538,100.26 -12.438,5.825 -25.31,10.147 -38.414,12.956 -32.104,6.873 -65.573,4.664 -97.208,-6.788 -44.554,-16.124 -80.164003,-48.63 -100.263003,-91.532 -20.104,-42.906 -22.292,-91.072 -6.176,-135.628 15.441,-42.629 45.892,-77.036999 86.083003,-97.535999 l 7.184,22.52 c 1.974,6.19 6.445,6.774 9.942,1.296 l 31.154,-48.878 c 3.49,-5.485 1.42,-11.971 -4.597,-14.417 z"
     id="path2"
     style="fill:#ffffff" /><g
     transform="translate(-4.2835032,-28.237929)"
     id="g13" /><g
     transform="translate(-4.2835032,-28.237929)"
     id="g15" /><g
     transform="translate(-4.2835032,-28.237929)"
     id="g17" /><g
     transform="translate(-4.2835032,-28.237929)"
     id="g19" /><g
     transform="translate(-4.2835032,-28.237929)"
     id="g21" /><g
     transform="translate(-4.2835032,-28.237929)"
     id="g23" /><g
     transform="translate(-4.2835032,-28.237929)"
     id="g25" /><g
     transform="translate(-4.2835032,-28.237929)"
     id="g27" /><g
     transform="translate(-4.2835032,-28.237929)"
     id="g29" /><g
     transform="translate(-4.2835032,-28.237929)"
     id="g31" /><g
     transform="translate(-4.2835032,-28.237929)"
     id="g33" /><g
     transform="translate(-4.2835032,-28.237929)"
     id="g35" /><g
     transform="translate(-4.2835032,-28.237929)"
     id="g37" /><g
     transform="translate(-4.2835032,-28.237929)"
     id="g39" /><g
     transform="translate(-4.2835032,-28.237929)"
     id="g41" /></svg>