<?xml version="1.0" encoding="UTF-8" standalone="no"?>
<svg
   xmlns:dc="http://purl.org/dc/elements/1.1/"
   xmlns:cc="http://creativecommons.org/ns#"
   xmlns:rdf="http://www.w3.org/1999/02/22-rdf-syntax-ns#"
   xmlns:svg="http://www.w3.org/2000/svg"
   xmlns="http://www.w3.org/2000/svg"
   xml:space="preserve"
   width="438.29138"
   viewBox="0 0 438.29138 450.28534"
   version="1.1"
   id="Layer_1"
   height="450.28534"
   enable-background="new 0 0 512 512"><metadata
     id="metadata40"><rdf:RDF><cc:Work
         rdf:about=""><dc:format>image/svg+xml</dc:format><dc:type
           rdf:resource="http://purl.org/dc/dcmitype/StillImage" /><dc:title></dc:title></cc:Work></rdf:RDF></metadata><defs
     id="defs38" /><circle
     cx="143.99739"
     cy="55.487999"
     r="15.855"
     id="circle2"
     style="fill:#2f90b2" /><circle
     cx="143.99739"
     cy="223.438"
     r="15.855"
     id="circle4"
     style="fill:#2f90b2" /><circle
     cx="60.022392"
     cy="139.463"
     r="15.855"
     id="circle6"
     style="fill:#2f90b2" /><circle
     cx="227.9724"
     cy="139.463"
     r="15.855"
     id="circle8"
     style="fill:#2f90b2" /><path
     d="m 217.28139,71.656 c -3.377,-3.377 -8.853,-3.377 -12.231,0 l -59.343,59.566 c -0.65,-0.114 -1.316,0.039 -1.999,0.039 H 97.583391 c -6.369,0 -11.531,5.131 -11.531,11.5 0,6.369 5.163,11.5 11.531,11.5 h 46.124999 c 4.777,0 8.875,-3.096 10.625,-7.235 l 62.948,-63.044 c 3.378,-3.377 3.378,-8.949 0,-12.326 z"
     id="path10"
     style="fill:#2f90b2" /><circle
     cx="324.99741"
     cy="356.13699"
     r="13.009"
     id="circle12"
     style="fill:#2f90b2" /><circle
     cx="324.99741"
     cy="218.34"
     r="13.009"
     id="circle14"
     style="fill:#2f90b2" /><circle
     cx="393.89542"
     cy="287.23898"
     r="13.009"
     id="circle16"
     style="fill:#2f90b2" /><circle
     cx="256.09842"
     cy="287.23898"
     r="13.009"
     id="circle18"
     style="fill:#2f90b2" /><path
     d="m 264.87039,342.872 c 2.771,2.771 7.264,2.771 10.035,0 l 48.689,-48.726 c 0.534,0.094 1.079,0.115 1.64,0.115 h 37.844 c 5.225,0 9.461,-4.275 9.461,-9.5 0,-5.225 -4.236,-9.5 -9.461,-9.5 h -37.845 c -3.919,0 -7.282,2.458 -8.718,5.854 l -51.646,51.684 c -2.771,2.771 -2.771,7.302 10e-4,10.073 z"
     id="path20"
     style="fill:#2f90b2" /><circle
     cx="144.99739"
     cy="301.45999"
     r="10.368"
     id="circle22"
     style="fill:#2f90b2" /><circle
     cx="144.99739"
     cy="411.28198"
     r="10.368"
     id="circle24"
     style="fill:#2f90b2" /><circle
     cx="90.086395"
     cy="356.37097"
     r="10.368"
     id="circle26"
     style="fill:#2f90b2" /><circle
     cx="199.90839"
     cy="356.37097"
     r="10.368"
     id="circle28"
     style="fill:#2f90b2" /><path
     d="m 192.91839,312.032 c -2.208,-2.209 -5.789,-2.209 -7.998,0 l -38.805,39.077 c -0.425,-0.075 -0.86,0.152 -1.307,0.152 h -30.161 c -4.165,0 -7.54,3.336 -7.54,7.5 0,4.164 3.376,7.5 7.54,7.5 h 30.161 c 3.124,0 5.803,-2.131 6.948,-4.838 l 41.162,-41.278 c 2.209,-2.208 2.209,-5.905 0,-8.113 z"
     id="path30"
     style="fill:#2f90b2" /><path
     d="m 424.65439,233.54 c -3.141,2.01 -6.996,3.146 -11.293,3.244 l -8.054,0.185 c 9.237,14.636 14.591,31.956 14.591,50.505 0,52.329 -42.572,94.901 -94.901,94.901 -52.328,0 -94.901,-42.572 -94.901,-94.901 0,-52.328 42.573,-94.901 94.901,-94.901 14.999,0 29.191,3.508 41.813,9.731 l -6.969,12.739 c -3.249,5.938 -0.37,10.669 6.397,10.514 l 46.84,-1.077 c 6.767,-0.156 9.425,-5.014 5.907,-10.797 l -24.353,-40.026 c -3.518,-5.783 -9.055,-5.655 -12.304,0.283 l -6.672,12.195 c -15.246,-7.639 -32.445,-11.955 -50.659,-11.955 -18.67,0 -36.284,4.519 -51.812,12.518 5.689,-15.122 8.81,-31.501 8.81,-48.612 0,-76.263 -61.823,-138.086 -138.086,-138.086 -23.799,0 -46.189999,6.021 -65.736999,16.622 2.45,3.828 3.834,8.527 3.954,13.764 l 0.226,9.817 C 100.19039,28.945 121.30039,22.419 143.90839,22.419 c 63.78,0 115.668,51.888 115.668,115.668 0,63.779 -51.888,115.667 -115.668,115.667 -63.778999,0 -115.666999,-51.888 -115.666999,-115.667 0,-18.281 4.275,-35.578 11.861,-50.963 l 15.527,8.494 c 7.238,3.96 13.004,0.451 12.814,-7.797 l -1.313,-57.09 c -0.19,-8.248 -6.111,-11.488 -13.159,-7.199 L 5.1863905,53.214 c -7.048,4.288 -6.893,11.036 0.345,14.996 l 14.8630005,8.132 c -9.31,18.583 -14.5720005,39.545 -14.5720005,61.745 0,65.084 45.0310005,119.642 105.6339995,134.241 -33.258999,13.315 -56.753999,45.84 -56.753999,83.855 0,15.562 3.937,30.204 10.869,42.985 2.503,-1.602 5.576,-2.507 9,-2.586 l 6.419,-0.148 c -7.362,-11.665 -11.629,-25.468 -11.629,-40.252 0,-41.706 33.929999,-75.635 75.634999,-75.635 41.705,0 75.635,33.93 75.635,75.635 0,41.705 -33.93,75.635 -75.635,75.635 -11.954,0 -23.265,-2.796 -33.325,-7.756 l 5.555,-10.153 c 2.589,-4.733 0.295,-8.503 -5.098,-8.379 l -37.330999,0.859 c -5.393,0.124 -7.512,3.996 -4.708,8.605 l 19.409,31.901 c 2.804,4.609 7.217,4.507 9.806,-0.226 l 5.316999,-9.719 c 12.151,6.088 25.859,9.528 40.375,9.528 49.707,0 90.029,-40.167 90.289,-89.813 20.719,26.825 53.195,44.106 89.711,44.106 62.571,0 113.295,-50.724 113.295,-113.295 0.001,-19.526 -4.94,-37.897 -13.637,-53.935 z"
     id="path32"
     style="opacity:1;fill:#cccccc;fill-opacity:1" /></svg>