<?xml version="1.0" encoding="UTF-8" standalone="no"?>
<svg
   xmlns:dc="http://purl.org/dc/elements/1.1/"
   xmlns:cc="http://creativecommons.org/ns#"
   xmlns:rdf="http://www.w3.org/1999/02/22-rdf-syntax-ns#"
   xmlns:svg="http://www.w3.org/2000/svg"
   xmlns="http://www.w3.org/2000/svg"
   xml:space="preserve"
   width="512"
   viewBox="0 0 512 512"
   version="1.1"
   id="Layer_1"
   height="512"><metadata
     id="metadata38"><rdf:RDF><cc:Work
         rdf:about=""><dc:format>image/svg+xml</dc:format><dc:type
           rdf:resource="http://purl.org/dc/dcmitype/StillImage" /><dc:title></dc:title></cc:Work></rdf:RDF></metadata><defs
     id="defs7" /><rect
     height="351.03409"
     id="rect5354"
     rx="2.8295007"
     ry="3.3136823"
     style="fill:#ffffff;fill-opacity:0;stroke:none;stroke-width:1.02400005"
     width="484.9935"
     x="13.50235"
     y="181.11804" /><path
     style="fill:#333333;fill-opacity:0;fill-rule:evenodd;stroke:none;stroke-width:0.51302397;stroke-linejoin:bevel"
     id="path13179"
     d="m 16,46.352 c -8.8639488,0 -16,7.1358 -16,16 v 467.296 c 0,8.864 7.1360512,16 16,16 h 480 c 8.86395,0 16,-7.136 16,-16 V 62.352 c 0,-8.8642 -7.13605,-16 -16,-16 z M 35.680051,191.824 H 476.288 c 8.14899,0 14.72,6.1684 14.72,13.888 v 304.992 c 0,7.7195 -6.57101,13.952 -14.72,13.952 H 35.680051 C 27.530957,524.656 20.992,518.4235 20.992,510.704 V 205.712 c 0,-7.7196 6.538957,-13.888 14.688051,-13.888 z" /><g
     id="g13438"
     transform="matrix(1.1138819,0,0,1.1138819,-15270.018,-1357.5099)"
     style="fill-rule:evenodd;stroke-width:0.50099999;stroke-linejoin:bevel"><path
       d="m 13843.838,1540.3823 c 3.602,0.8635 6.857,2.7549 9.764,5.6754 2.909,2.9199 5.271,6.4475 7.088,10.5819 1.822,4.1472 2.937,8.6412 3.346,13.4819 0.412,4.841 -0.114,9.533 -1.561,14.0767 -1.157,4.0148 -2.958,7.9802 -5.403,11.8954 -2.445,3.9156 -5.733,7.4843 -9.863,10.7061 -4.143,3.2303 -9.29,5.8404 -15.44,7.8315 -6.15,1.9911 -13.428,3.015 -21.834,3.0731 -7.62,-0.049 -14.287,-0.8962 -19.999,-2.5527 -5.712,-1.6564 -10.545,-3.8453 -14.498,-6.5674 -4.035,-2.7263 -7.464,-5.6506 -10.285,-8.7732 -2.821,-3.1226 -5.208,-6.1458 -7.162,-9.0701 -0.702,-0.9047 -1.33,-1.9207 -1.883,-3.0484 -0.554,-1.1276 -0.984,-2.2924 -1.289,-3.4943 -0.411,-1.1029 -0.481,-2.1685 -0.198,-3.1971 0.282,-1.0284 1.007,-1.9454 2.181,-2.7508 l 18.636,-11.1028 c 4.792,-2.9739 8.889,-2.1809 12.292,2.3792 2.325,3.1969 5.258,6.0718 8.798,8.6245 3.54,2.5526 8.009,4.0396 13.407,4.4609 2.689,0.083 5.192,-0.233 7.51,-0.9418 2.317,-0.7102 4.374,-1.7185 6.171,-3.0235 1.796,-1.2971 3.209,-2.7673 4.238,-4.4114 1.028,-1.6441 1.598,-3.4116 1.709,-5.3035 0.139,-0.9294 0.114,-2.0941 -0.07,-3.4945 -0.189,-1.4002 -0.756,-2.8128 -1.71,-4.2379 -0.967,-1.3997 -2.504,-2.6636 -4.61,-3.7916 -2.107,-1.1273 -4.932,-2.0443 -8.476,-2.7505 -3.077,-0.4659 -5.398,-1.4172 -6.964,-2.85 -1.565,-1.4335 -2.35,-3.5236 -2.354,-6.2702 v -9.3183 c 0,-2.7301 0.748,-4.8034 2.255,-6.2206 1.508,-1.4166 3.796,-2.449 6.865,-3.0979 3.535,-0.7063 6.328,-1.6729 8.377,-2.8996 2.048,-1.2262 3.551,-2.6388 4.51,-4.2378 0.954,-1.5197 1.524,-2.9904 1.71,-4.411 0.188,-1.4209 0.208,-2.5942 0.07,-3.5191 -0.297,-1.6149 -0.942,-3.2426 -1.933,-4.8822 -0.991,-1.6396 -2.33,-3.1187 -4.015,-4.4361 -1.694,-1.2184 -3.659,-2.2013 -5.898,-2.9493 -2.239,-0.7474 -4.701,-1.0859 -7.386,-1.0161 -5.187,0.3618 -9.533,1.6689 -13.035,3.9157 -3.503,2.2469 -6.559,5.0394 -9.17,8.3767 -1.788,2.2715 -3.713,3.6262 -5.774,4.0644 -2.061,0.4362 -4.234,0 -6.518,-1.2888 l -15.861,-9.5166 c -2.718,-1.5241 -4.519,-2.9864 -5.402,-4.3866 -0.885,-1.4002 -0.604,-3.1102 0.842,-5.1301 1.859,-2.8331 4.189,-5.9394 6.989,-9.3183 2.8,-3.3785 6.22,-6.683 10.26,-9.9127 4.023,-3.139 8.864,-5.8324 14.523,-8.0792 5.658,-2.247 12.383,-3.6511 20.172,-4.2131 8.708,-0.4164 16.324,0.3667 22.85,2.3543 6.526,1.9866 12.061,4.7048 16.604,8.1535 4.544,3.4696 8.096,7.088 10.657,10.8545 2.561,3.7676 4.23,7.0879 5.006,9.9627 1.285,5.089 1.789,10.0783 1.512,14.969 -0.278,4.8902 -1.309,9.4834 -3.098,13.7789 -1.809,4.2998 -4.139,7.9429 -6.989,10.9292 -2.85,2.9864 -6.071,5.0929 -9.665,6.3196 z"
       id="path13251"
       style="font-style:normal;font-variant:normal;font-weight:normal;font-stretch:normal;font-size:40px;line-height:125%;font-family:'Katahdin Round';-inkscape-font-specification:'Katahdin Round';letter-spacing:0px;word-spacing:0px;fill:#00a1f1;fill-opacity:1;stroke:none" /><path
       d="m 13898.576,1512.2294 h -16.455 c -3.891,-0.069 -6.32,-1.1192 -7.286,-3.1474 -0.967,-2.0282 -0.322,-4.6137 1.933,-7.7571 l 22.205,-28.7478 c 2.742,-3.5686 6.378,-5.3531 10.904,-5.3531 h 17.249 c 5.948,0 8.922,2.974 8.922,8.9219 v 128.8695 c 0,5.9479 -2.974,8.9218 -8.922,8.9218 h -19.628 c -5.948,0 -8.922,-2.9739 -8.922,-8.9218 z"
       id="path13253"
       style="font-style:normal;font-variant:normal;font-weight:normal;font-stretch:normal;font-size:40px;line-height:125%;font-family:'Katahdin Round';-inkscape-font-specification:'Katahdin Round';letter-spacing:0px;word-spacing:0px;fill:#00a1f1;fill-opacity:1;stroke:none" /></g><path
     style="fill:#cccccc;fill-opacity:1;fill-rule:evenodd;stroke:none;stroke-width:0.20430851;stroke-linejoin:bevel"
     id="path13193"
     d="m 364.99509,261.1771 a 17.943265,17.943265 0 1 1 -35.88653,0 17.943265,17.943265 0 1 1 35.88653,0 z" /><path
     style="fill:#cccccc;fill-opacity:1;fill-rule:evenodd;stroke:none;stroke-width:0.20430851;stroke-linejoin:bevel"
     id="path13195"
     d="m 413.52349,261.1771 a 17.943265,17.943265 0 1 1 -35.88653,0 17.943265,17.943265 0 1 1 35.88653,0 z" /><path
     style="fill:#cccccc;fill-opacity:1;fill-rule:evenodd;stroke:none;stroke-width:0.20430851;stroke-linejoin:bevel"
     id="path13197"
     d="m 462.05189,261.1771 a 17.943265,17.943265 0 1 1 -35.88653,0 17.943265,17.943265 0 1 1 35.88653,0 z" /><path
     style="fill:#cccccc;fill-opacity:1;fill-rule:evenodd;stroke:none;stroke-width:0.20430851;stroke-linejoin:bevel"
     id="path13203"
     d="m 316.46679,309.7055 a 17.943265,17.943265 0 1 1 -35.88653,0 17.943265,17.943265 0 1 1 35.88653,0 z" /><path
     style="fill:#cccccc;fill-opacity:1;fill-rule:evenodd;stroke:none;stroke-width:0.20430851;stroke-linejoin:bevel"
     id="path13205"
     d="m 364.99509,309.7055 a 17.943265,17.943265 0 1 1 -35.88653,0 17.943265,17.943265 0 1 1 35.88653,0 z" /><path
     style="fill:#cccccc;fill-opacity:1;fill-rule:evenodd;stroke:none;stroke-width:0.20430851;stroke-linejoin:bevel"
     id="path13207"
     d="m 413.52349,309.7055 a 17.943265,17.943265 0 1 1 -35.88653,0 17.943265,17.943265 0 1 1 35.88653,0 z" /><path
     style="fill:#cccccc;fill-opacity:1;fill-rule:evenodd;stroke:none;stroke-width:0.20430851;stroke-linejoin:bevel"
     id="path13209"
     d="m 462.05189,309.7055 a 17.943265,17.943265 0 1 1 -35.88653,0 17.943265,17.943265 0 1 1 35.88653,0 z" /><path
     style="fill:#cccccc;fill-opacity:1;fill-rule:evenodd;stroke:none;stroke-width:0.20430851;stroke-linejoin:bevel"
     id="path13215"
     d="m 316.46679,358.2338 a 17.943265,17.943265 0 1 1 -35.88653,0 17.943265,17.943265 0 1 1 35.88653,0 z" /><path
     style="fill:#cccccc;fill-opacity:1;fill-rule:evenodd;stroke:none;stroke-width:0.20430851;stroke-linejoin:bevel"
     id="path13217"
     d="m 364.99509,358.2338 a 17.943265,17.943265 0 1 1 -35.88653,0 17.943265,17.943265 0 1 1 35.88653,0 z" /><path
     style="fill:#cccccc;fill-opacity:1;fill-rule:evenodd;stroke:none;stroke-width:0.20430851;stroke-linejoin:bevel"
     id="path13219"
     d="m 413.52349,358.2338 a 17.943265,17.943265 0 1 1 -35.88653,0 17.943265,17.943265 0 1 1 35.88653,0 z" /><path
     style="fill:#cccccc;fill-opacity:1;fill-rule:evenodd;stroke:none;stroke-width:0.20430851;stroke-linejoin:bevel"
     id="path13221"
     d="m 462.05189,358.2338 a 17.943265,17.943265 0 1 1 -35.88653,0 17.943265,17.943265 0 1 1 35.88653,0 z" /><path
     style="fill:#cccccc;fill-opacity:1;fill-rule:evenodd;stroke:none;stroke-width:0.20430851;stroke-linejoin:bevel"
     id="path13227"
     d="m 316.46679,406.7622 a 17.943265,17.943265 0 1 1 -35.88653,0 17.943265,17.943265 0 1 1 35.88653,0 z" /><path
     style="fill:#cccccc;fill-opacity:1;fill-rule:evenodd;stroke:none;stroke-width:0.20430851;stroke-linejoin:bevel"
     id="path13229"
     d="m 364.99509,406.7622 a 17.943265,17.943265 0 1 1 -35.88653,0 17.943265,17.943265 0 1 1 35.88653,0 z" /><path
     style="fill:#cccccc;fill-opacity:1;fill-rule:evenodd;stroke:none;stroke-width:0.20430851;stroke-linejoin:bevel"
     id="path13231"
     d="m 413.52349,406.7622 a 17.943265,17.943265 0 1 1 -35.88653,0 17.943265,17.943265 0 1 1 35.88653,0 z" /><path
     style="fill:#cccccc;fill-opacity:1;fill-rule:evenodd;stroke:none;stroke-width:0.20430851;stroke-linejoin:bevel"
     id="path13233"
     d="m 462.05189,406.7622 a 17.943265,17.943265 0 1 1 -35.88653,0 17.943265,17.943265 0 1 1 35.88653,0 z" /><path
     style="fill:#cccccc;fill-opacity:1;fill-rule:evenodd;stroke:none;stroke-width:0.20430851;stroke-linejoin:bevel"
     id="path13239"
     d="m 316.46679,455.2906 a 17.943265,17.943265 0 1 1 -35.88653,0 17.943265,17.943265 0 1 1 35.88653,0 z" /><path
     style="fill:#cccccc;fill-opacity:1;fill-rule:evenodd;stroke:none;stroke-width:0.20430851;stroke-linejoin:bevel"
     id="path13241"
     d="m 364.99509,455.2906 a 17.943265,17.943265 0 1 1 -35.88653,0 17.943265,17.943265 0 1 1 35.88653,0 z" /><path
     style="fill:#cccccc;fill-opacity:1;fill-rule:evenodd;stroke:none;stroke-width:0.20430851;stroke-linejoin:bevel"
     id="path13243"
     d="m 413.52349,455.2906 a 17.943265,17.943265 0 1 1 -35.88653,0 17.943265,17.943265 0 1 1 35.88653,0 z" /><path
     d="m 53.819551,38.827 c -23.4381,0 -42.6217,19.214 -42.6217,42.653 v 383.686 c 0,23.438 19.1837,42.652 42.6217,42.652 H 458.83275 c 23.4381,0 42.6217,-19.214 42.6217,-42.652 V 81.48 c 0,-23.439 -19.1837,-42.653 -42.6217,-42.653 h -58.3711 c 0.2363,8.15 0.071,16.328 -0.1226,24.513 h 58.4937 c 9.8393,0 18.1395,8.3 18.1395,18.14 v 94.344 H 35.680051 V 81.48 c 0,-9.84 8.3003,-18.14 18.1395,-18.14 h 58.677599 c 0.1371,-8.177 0.2081,-16.358 0.061,-24.513 H 53.819251 Z m 119.775799,0 c 0.2497,8.148 0.074,16.327 -0.1226,24.513 h 165.9519 c 0.1371,-8.177 0.2082,-16.358 0.061,-24.513 H 173.59505 Z M 35.680051,200.306 H 476.97225 v 264.86 c 0,9.839 -8.302,18.14 -18.1395,18.14 H 53.819551 c -9.8392,0 -18.1395,-8.301 -18.1395,-18.14 z"
     id="path13-88-7-80"
     style="fill:#cccccc;fill-opacity:1" /><path
     d="m 141.63329,7.163789 c -8.6913,0 -15.6882,6.997 -15.6882,15.689 V 125.62279 c 0,8.691 6.9969,15.688 15.6882,15.688 h 2.1755 c 8.6913,0 15.6882,-6.997 15.6882,-15.688 V 22.852789 c 0,-8.692 -6.9969,-15.689 -15.6882,-15.689 z m 226.9276,0 c -8.6913,0 -15.6883,6.997 -15.6883,15.689 V 125.62279 c 0,8.691 6.997,15.688 15.6883,15.688 h 2.1448 c 8.6913,0 15.6882,-6.997 15.6882,-15.688 V 22.852789 c 0,-8.692 -6.9969,-15.689 -15.6882,-15.689 z"
     id="rect6478-5"
     style="fill:#00a1f1;fill-opacity:1;fill-rule:nonzero;stroke:none" /></svg>