<?xml version="1.0" encoding="UTF-8" standalone="no"?>
<svg
   xmlns:dc="http://purl.org/dc/elements/1.1/"
   xmlns:cc="http://creativecommons.org/ns#"
   xmlns:rdf="http://www.w3.org/1999/02/22-rdf-syntax-ns#"
   xmlns:svg="http://www.w3.org/2000/svg"
   xmlns="http://www.w3.org/2000/svg"
   xml:space="preserve"
   width="512"
   viewBox="0 0 512 512"
   version="1.1"
   id="Layer_1"
   height="512"><metadata
     id="metadata38"><rdf:RDF><cc:Work
         rdf:about=""><dc:format>image/svg+xml</dc:format><dc:type
           rdf:resource="http://purl.org/dc/dcmitype/StillImage" /><dc:title></dc:title></cc:Work></rdf:RDF></metadata><defs
     id="defs7" /><rect
     height="351.03409"
     id="rect5354"
     rx="2.8295007"
     ry="3.3136823"
     style="fill:#ffffff;fill-opacity:0;stroke:none;stroke-width:1.02400005"
     width="484.9935"
     x="13.50235"
     y="181.11804" /><path
     style="fill:#333333;fill-opacity:0;fill-rule:evenodd;stroke:none;stroke-width:0.51302397;stroke-linejoin:bevel"
     id="path13179"
     d="m 16,46.352 c -8.8639488,0 -16,7.1358 -16,16 v 467.296 c 0,8.864 7.1360512,16 16,16 h 480 c 8.86395,0 16,-7.136 16,-16 V 62.352 c 0,-8.8642 -7.13605,-16 -16,-16 z M 35.680051,191.824 H 476.288 c 8.14899,0 14.72,6.1684 14.72,13.888 v 304.992 c 0,7.7195 -6.57101,13.952 -14.72,13.952 H 35.680051 C 27.530957,524.656 20.992,518.4235 20.992,510.704 V 205.712 c 0,-7.7196 6.538957,-13.888 14.688051,-13.888 z" /><path
     d="m 53.819551,38.827 c -23.4381,0 -42.6217,19.214 -42.6217,42.653 v 383.686 c 0,23.438 19.1837,42.652 42.6217,42.652 H 458.83275 c 23.4381,0 42.6217,-19.214 42.6217,-42.652 V 81.48 c 0,-23.439 -19.1837,-42.653 -42.6217,-42.653 h -58.3711 c 0.2363,8.15 0.071,16.328 -0.1226,24.513 h 58.4937 c 9.8393,0 18.1395,8.3 18.1395,18.14 v 94.344 H 35.680051 V 81.48 c 0,-9.84 8.3003,-18.14 18.1395,-18.14 h 58.677599 c 0.1371,-8.177 0.2081,-16.358 0.061,-24.513 H 53.819251 Z m 119.775799,0 c 0.2497,8.148 0.074,16.327 -0.1226,24.513 h 165.9519 c 0.1371,-8.177 0.2082,-16.358 0.061,-24.513 H 173.59505 Z M 35.680051,200.306 H 476.97225 v 264.86 c 0,9.839 -8.302,18.14 -18.1395,18.14 H 53.819551 c -9.8392,0 -18.1395,-8.301 -18.1395,-18.14 z"
     id="path13-88-7-80"
     style="fill:#cccccc;fill-opacity:1" /><path
     d="m 141.63329,7.163789 c -8.6913,0 -15.6882,6.997 -15.6882,15.689 V 125.62279 c 0,8.691 6.9969,15.688 15.6882,15.688 h 2.1755 c 8.6913,0 15.6882,-6.997 15.6882,-15.688 V 22.852789 c 0,-8.692 -6.9969,-15.689 -15.6882,-15.689 z m 226.9276,0 c -8.6913,0 -15.6883,6.997 -15.6883,15.689 V 125.62279 c 0,8.691 6.997,15.688 15.6883,15.688 h 2.1448 c 8.6913,0 15.6882,-6.997 15.6882,-15.688 V 22.852789 c 0,-8.692 -6.9969,-15.689 -15.6882,-15.689 z"
     id="rect6478-5"
     style="fill:#00a1f1;fill-opacity:1;fill-rule:nonzero;stroke:none" /><path
     d="m 134.6541,343.67959 c -1.57875,1.56705 -3.41087,3.26273 -5.49637,5.08706 -2.08551,1.82043 -4.30745,3.71102 -6.66582,5.67179 -2.37396,1.96856 -4.83758,3.9566 -7.38696,5.96414 -2.54938,2.00754 -4.97403,3.91763 -7.27002,5.73027 h 35.08322 c 4.67775,0 7.01664,2.33887 7.01664,7.01664 v 14.03329 c 0,4.67776 -2.33889,7.01664 -7.01664,7.01664 H 69.477274 c -4.67776,0 -7.01665,-2.33888 -7.01665,-7.01664 v -7.64035 c 0,-1.94517 0.23389,-3.63306 0.6432,-5.06758 0.42099,-1.4384 0.98623,-2.65852 1.69569,-3.66424 0.63539,-1.00182 1.35655,-1.8867 2.16346,-2.65074 0.81082,-0.76792 1.64891,-1.49688 2.5143,-2.18295 l 11.38255,-9.8233 c 4.48286,-3.7734 8.96961,-7.61306 13.46807,-11.51899 4.50234,-3.90983 8.794186,-7.71051 12.883326,-11.40205 2.03093,-1.80093 3.85526,-3.46543 5.47688,-4.98961 1.62163,-1.52806 3.01716,-2.88071 4.1905,-4.05405 0.63539,-0.63539 1.2396,-1.39554 1.81263,-2.28041 0.57692,-0.88878 1.06419,-1.84382 1.4618,-2.86513 0.31185,-1.03301 0.49897,-2.12448 0.52625,-3.27443 0,-1.14996 -0.15593,-2.24144 -0.52625,-3.27444 -0.69387,-1.875 -2.14787,-3.54341 -4.36591,-5.0091 -2.21414,-1.4657 -5.2274,-2.23753 -9.04367,-2.31939 -2.1011,0 -4.05796,0.4093 -5.86669,1.16944 -1.808746,0.76013 -3.488836,1.77365 -5.048096,3.04054 -1.62942,1.26689 -3.1224,2.67022 -4.48286,4.20999 -1.35654,1.53976 -2.61564,3.09902 -3.78119,4.67776 -2.80665,3.7656 -6.08108,4.33862 -9.82329,1.71518 l -12.78589,-8.88775 c -3.59018,-2.62734 -4.55302,-5.40671 -2.88462,-8.342 1.6723,-2.9353 3.67205,-5.71857 6.00313,-8.34202 1.8984,-2.52209 3.87475,-4.65047 5.92516,-6.39294 9.82331,-8.29133 20.73809,-12.44674 32.744346,-12.47403 4.60759,0 8.96181,0.612 13.05875,1.79313 4.10083,1.18115 7.90931,2.87294 11.42154,5.06759 3.44985,2.2804 6.49039,5.0091 9.12163,8.18608 2.63125,3.17698 4.73623,6.6853 6.31498,10.52496 2.93919,7.32849 3.61358,14.657 2.02703,21.98549 -0.95504,3.75001 -2.74819,7.35578 -5.37943,10.81732 -2.63124,3.45764 -5.51585,6.71258 -8.65385,9.76483 z"
     id="path5421"
     style="font-style:normal;font-variant:normal;font-weight:normal;font-stretch:normal;font-size:40px;line-height:125%;font-family:'Katahdin Round';-inkscape-font-specification:'Katahdin Round';letter-spacing:0px;word-spacing:0px;fill:#00a1f1;fill-opacity:1;fill-rule:evenodd;stroke:none;stroke-width:1.02399993" /><path
     d="m 224.08512,275.85204 c 7.82355,0.0779 14.94155,1.72297 21.36178,4.97012 6.42023,3.24325 11.97897,7.66763 16.68402,13.27315 4.63098,5.67569 8.19388,12.13879 10.70038,19.39323 2.50261,7.25442 3.7695,14.92595 3.80068,23.01847 0,7.86644 -1.06029,15.40153 -3.19646,22.60919 -2.13618,7.20375 -5.38723,13.64737 -9.74534,19.33475 -4.36982,5.68349 -9.85839,10.17804 -16.46963,13.48755 -6.61124,3.30562 -14.32175,4.99352 -23.13543,5.06368 -8.20948,-0.039 -15.56526,-1.62162 -22.06345,-4.71284 -6.49429,-3.09513 -11.97897,-7.39477 -16.45013,-12.90283 -4.46726,-5.51197 -7.88983,-11.91661 -10.27159,-19.21781 -2.37786,-7.30511 -3.58238,-15.19104 -3.60577,-23.66169 0,-7.63644 1.16164,-15.0117 3.44985,-22.12191 2.2921,-7.11019 5.66399,-13.51093 10.11566,-19.19831 4.38541,-5.68738 9.84279,-10.25599 16.37216,-13.70194 6.52939,-3.44596 14.0138,-5.32486 22.45327,-5.63281 z m 0,93.24339 c 4.72843,-0.0779 8.60319,-1.11097 11.61644,-3.13801 3.01326,-2.03092 5.32875,-4.67775 6.93868,-7.9327 1.61383,-3.18867 2.75209,-6.6775 3.41088,-10.46649 0.65878,-3.79289 0.97843,-7.47663 0.95504,-11.05122 0,-3.11461 -0.43659,-6.51767 -1.32537,-10.2131 -0.88877,-3.69933 -2.26872,-7.25833 -4.13203,-10.68089 -1.85941,-3.42647 -4.22167,-6.24092 -7.0946,-8.43947 -2.87293,-2.19855 -6.32668,-3.33679 -10.36904,-3.41086 -3.82408,0.0779 -7.16868,1.11097 -10.0377,3.15748 -2.86903,2.04653 -5.2391,4.73624 -7.11409,8.06914 -1.94517,3.34071 -3.39528,6.90751 -4.34643,10.70039 -0.95114,3.78899 -1.42672,7.39476 -1.42282,10.81731 0,3.57459 0.31185,7.25833 0.95504,11.05122 0.65879,3.78899 1.79704,7.27782 3.41088,10.46649 1.62162,3.25495 3.95271,5.90178 6.99715,7.9327 3.04444,2.02704 6.8958,3.07564 11.55797,3.13801 z"
     id="path5423"
     style="font-style:normal;font-variant:normal;font-weight:normal;font-stretch:normal;font-size:40px;line-height:125%;font-family:'Katahdin Round';-inkscape-font-specification:'Katahdin Round';letter-spacing:0px;word-spacing:0px;fill:#00a1f1;fill-opacity:1;fill-rule:evenodd;stroke:none;stroke-width:1.02399993" /><path
     d="m 318.33423,314.20969 h -12.9418 c -3.06004,-0.039 -4.97012,-0.88098 -5.73026,-2.47531 -0.76014,-1.59434 -0.27287,-3.62917 1.52027,-6.10059 l 17.46365,-22.60919 c 2.15957,-2.80665 5.0169,-4.20998 8.5759,-4.20998 h 13.56551 c 4.67777,0 7.01664,2.33888 7.01664,7.01664 v 101.35152 c 0,4.67776 -2.33887,7.01664 -7.01664,7.01664 h -15.43661 c -4.67777,0 -7.01666,-2.33888 -7.01666,-7.01664 z"
     id="path5425"
     style="font-style:normal;font-variant:normal;font-weight:normal;font-stretch:normal;font-size:40px;line-height:125%;font-family:'Katahdin Round';-inkscape-font-specification:'Katahdin Round';letter-spacing:0px;word-spacing:0px;fill:#00a1f1;fill-opacity:1;fill-rule:evenodd;stroke:none;stroke-width:1.02399993" /><path
     d="m 420.16134,304.54231 h -39.13729 c -4.67776,0 -7.01664,-2.33887 -7.01664,-7.01664 v -11.69441 c 0,-4.67776 2.33888,-7.01664 7.01664,-7.01664 h 62.68201 c 4.67774,0 7.01666,2.33888 7.01666,7.01664 v 10.60293 c 0,1.74637 -0.11694,3.28224 -0.44831,4.59981 -0.31181,1.31757 -0.89262,2.69361 -1.73466,4.13202 l -44.12692,84.04379 c -1.73853,3.29782 -4.49452,4.96232 -8.26401,4.98961 h -14.34514 c -2.82614,-0.039 -4.69336,-0.8186 -5.59382,-2.33888 -0.89657,-1.52028 -0.69778,-3.5473 0.60421,-6.08109 z"
     id="path5427"
     style="font-style:normal;font-variant:normal;font-weight:normal;font-stretch:normal;font-size:40px;line-height:125%;font-family:'Katahdin Round';-inkscape-font-specification:'Katahdin Round';letter-spacing:0px;word-spacing:0px;fill:#00a1f1;fill-opacity:1;fill-rule:evenodd;stroke:none;stroke-width:1.02399993" /></svg>